<?xml version="1.0" encoding="UTF-8" standalone="no"?>
<svg
   id="f9f705c9-8b4c-4439-a246-51ada304283b"
   data-name="Layer 1"
   width="661.93033"
   height="646.1539"
   viewBox="0 0 661.93033 646.1539"
   version="1.1"
   sodipodi:docname="newShopping.svg"
   inkscape:version="1.1 (c68e22c387, 2021-05-23)"
   xmlns:inkscape="http://www.inkscape.org/namespaces/inkscape"
   xmlns:sodipodi="http://sodipodi.sourceforge.net/DTD/sodipodi-0.dtd"
   xmlns="http://www.w3.org/2000/svg"
   xmlns:svg="http://www.w3.org/2000/svg">
  <defs
     id="defs229" />
  <sodipodi:namedview
     id="namedview227"
     pagecolor="#ffffff"
     bordercolor="#666666"
     borderopacity="1.0"
     inkscape:pageshadow="2"
     inkscape:pageopacity="0.0"
     inkscape:pagecheckerboard="0"
     showgrid="false"
     inkscape:zoom="1.2520238"
     inkscape:cx="331.064"
     inkscape:cy="335.85624"
     inkscape:window-width="1920"
     inkscape:window-height="1017"
     inkscape:window-x="-8"
     inkscape:window-y="-8"
     inkscape:window-maximized="1"
     inkscape:current-layer="f9f705c9-8b4c-4439-a246-51ada304283b" />
  <path
     d="M334.99647,126.92305h-13.589a1.80162,1.80162,0,0,0-1.80162,1.80162v5.9646a1.80162,1.80162,0,0,0,1.80162,1.80162h2.25189v8.937h9.08517v-8.937h2.25189a1.80163,1.80163,0,0,0,1.80162-1.80162v-5.9646A1.80163,1.80163,0,0,0,334.99647,126.92305Z"
     fill="#e6e6e6"
     id="path164"
     transform="translate(-269.03484 -126.92305)" />
  <path
     d="M 125.5312,107.8041 H 97.27601 a 2.90091,2.90091 0 0 0 -2.86717,3.342 l 4.26977,27.75348 h 24.51757 l 5.18624,-27.66 a 2.90095,2.90095 0 0 0 -2.85122,-3.43551 z"
     fill="#ffffff"
     id="path168" />
  <path
     d="m 268.33041,182.50744 h -13.58895 a 1.80162,1.80162 0 0 0 -1.80162,1.80162 v 5.9646 a 1.80162,1.80162 0 0 0 1.80162,1.80162 h 2.25189 v 8.937 h 9.08518 v -8.937 h 2.25188 a 1.80162,1.80162 0 0 0 1.80162,-1.80162 v -5.9646 a 1.80162,1.80162 0 0 0 -1.80162,-1.80162 z"
     fill="#e6e6e6"
     id="path170" />
  <path
     d="m 281.9412,237.09539 a 69.86284,69.86284 0 0 1 -12.154,-41.42092 1.47343,1.47343 0 0 0 -1.15009,-1.47037 v -2.57728 h -14.35179 v 2.54146 h -0.19775 a 1.47261,1.47261 0 0 0 -1.4707,1.47453 q 6e-5,0.0536 0.004,0.10718 1.696,23.64147 -11.45381,42.40243 a 4.05838,4.05838 0 0 0 -0.7345,2.45945 l 1.56929,48.54265 a 4.2022,4.2022 0 0 0 4.16627,4.05579 h 32.46154 a 4.20368,4.20368 0 0 0 4.16877,-4.12732 l 0.60474,-47.13095 a 8.50594,8.50594 0 0 0 -1.46197,-4.85665 z"
     fill="#e6e6e6"
     id="path172" />
  <path
     d="m 276.80248,253.21977 h -28.25519 a 2.90091,2.90091 0 0 0 -2.86716,3.342 l 4.26976,27.75348 h 24.51757 l 5.18624,-27.66 a 2.90095,2.90095 0 0 0 -2.85122,-3.43551 z"
     fill="#ffffff"
     id="path174" />
  <path
     d="M315.89218,477.91365h-6.44586a.85459.85459,0,0,0-.85459.85459v2.82929a.85459.85459,0,0,0,.85459.85459h1.06818v4.23922H314.824v-4.23922h1.06817a.85459.85459,0,0,0,.85459-.85459v-2.82929A.85459.85459,0,0,0,315.89218,477.91365Z"
     fill="#e6e6e6"
     id="path176"
     transform="translate(-269.03484 -126.92305)" />
  <path
     d="M322.3484,503.80721a33.13912,33.13912,0,0,1-5.76522-19.64783.69891.69891,0,0,0-.54554-.69746v-1.22253h-6.80769v1.20553h-.0938a.69853.69853,0,0,0-.69762.69944q0,.02544.00192.05084a30.24345,30.24345,0,0,1-5.43307,20.11341,1.925,1.925,0,0,0-.3484,1.16663l.74438,23.026a1.99329,1.99329,0,0,0,1.97625,1.92384h15.398a1.994,1.994,0,0,0,1.97744-1.95777l.28685-22.35637A4.03473,4.03473,0,0,0,322.3484,503.80721Z"
     fill="#e6e6e6"
     id="path178"
     transform="translate(-269.03484 -126.92305)" />
  <rect
     x="36.40532"
     y="385.34835"
     width="14.69218"
     height="7.34609"
     fill="#fff"
     id="rect180" />
  <path
     d="m 127.96048,388.08242 h -6.44582 a 0.85459,0.85459 0 0 0 -0.85459,0.85459 v 2.82929 a 0.85459,0.85459 0 0 0 0.85459,0.85459 h 1.06817 v 4.23922 h 4.30952 v -4.23922 h 1.06817 a 0.85459,0.85459 0 0 0 0.85459,-0.85459 v -2.82929 a 0.85459,0.85459 0 0 0 -0.85463,-0.85459 z"
     fill="#e6e6e6"
     id="path182" />
  <path
     d="m 134.41666,413.97598 a 33.13912,33.13912 0 0 1 -5.76522,-19.64783 0.69891,0.69891 0 0 0 -0.54554,-0.69746 v -1.22253 h -6.80769 v 1.20553 h -0.0938 a 0.69853,0.69853 0 0 0 -0.69762,0.69944 q 0,0.0254 0.002,0.0508 a 30.24345,30.24345 0 0 1 -5.43307,20.11341 1.925,1.925 0 0 0 -0.3484,1.16663 l 0.74438,23.026 a 1.99329,1.99329 0 0 0 1.97625,1.92384 h 15.398 a 1.994,1.994 0 0 0 1.97743,-1.95777 l 0.28686,-22.35637 a 4.0348,4.0348 0 0 0 -0.6935,-2.30373 z"
     fill="#e6e6e6"
     id="path184" />
  <rect
     x="117.50845"
     y="422.44019"
     width="14.69218"
     height="7.3460898"
     fill="#ffffff"
     id="rect186" />
  <path
     d="m 157.96612,388.08242 h -6.44586 a 0.85459,0.85459 0 0 0 -0.85459,0.85459 v 2.82929 a 0.85459,0.85459 0 0 0 0.85459,0.85459 h 1.06817 v 4.23922 h 4.30952 v -4.23922 h 1.06817 a 0.85459,0.85459 0 0 0 0.85459,-0.85459 v -2.82929 a 0.85459,0.85459 0 0 0 -0.85459,-0.85459 z"
     fill="#e6e6e6"
     id="path188" />
  <path
     d="m 164.42234,413.97598 a 33.13912,33.13912 0 0 1 -5.76522,-19.64783 0.69891,0.69891 0 0 0 -0.54554,-0.69746 v -1.22253 h -6.80769 v 1.20553 h -0.0938 a 0.69853,0.69853 0 0 0 -0.69762,0.69944 q 0,0.0254 0.002,0.0508 a 30.24345,30.24345 0 0 1 -5.43307,20.11341 1.92512,1.92512 0 0 0 -0.34841,1.16663 l 0.74439,23.026 a 1.99329,1.99329 0 0 0 1.97625,1.92384 h 15.398 a 1.994,1.994 0 0 0 1.97744,-1.95777 l 0.28686,-22.35637 a 4.0348,4.0348 0 0 0 -0.69351,-2.30373 z"
     fill="#e6e6e6"
     id="path190" />
  <rect
     x="147.5141"
     y="422.44019"
     width="14.69218"
     height="7.3460898"
     fill="#ffffff"
     id="rect192" />
  <path
     d="m 244.7233,331.82683 h -13.58894 a 1.80163,1.80163 0 0 0 -1.80163,1.80162 v 5.9646 a 1.80163,1.80163 0 0 0 1.80163,1.80162 h 2.25188 v 8.937 h 9.08518 v -8.937 h 2.25188 a 1.80162,1.80162 0 0 0 1.80162,-1.80162 v -5.9646 a 1.80162,1.80162 0 0 0 -1.80162,-1.80162 z"
     fill="#e6e6e6"
     id="path194" />
  <path
     d="m 258.3341,386.41477 a 69.86282,69.86282 0 0 1 -12.15406,-41.42092 1.47342,1.47342 0 0 0 -1.15009,-1.47037 v -2.57729 h -14.35174 v 2.54146 h -0.19775 a 1.47261,1.47261 0 0 0 -1.4707,1.47453 q 6e-5,0.0537 0.004,0.10718 1.696,23.64149 -11.45381,42.40243 a 4.05834,4.05834 0 0 0 -0.73449,2.45945 l 1.56928,48.54266 a 4.2022,4.2022 0 0 0 4.16627,4.05578 h 32.46148 a 4.20366,4.20366 0 0 0 4.16877,-4.12731 l 0.60474,-47.131 a 8.50588,8.50588 0 0 0 -1.4619,-4.8566 z"
     fill="#e6e6e6"
     id="path196" />
  <path
     d="m 253.19537,402.53912 h -28.25519 a 2.90092,2.90092 0 0 0 -2.86716,3.342 l 4.26976,27.75348 h 24.51758 l 5.18623,-27.66 a 2.901,2.901 0 0 0 -2.85122,-3.43552 z"
     fill="#ffffff"
     id="path198" />
  <circle
     cx="212.12822"
     cy="97.43914"
     fill="#ffffff"
     id="circle202"
     r="19.518881" />
  <path
     d="M 177.97018,296.53167 H 96.96685 c 5.66326,-30.61869 4.36036,-67.59179 0,-107.35381 h 81.00333 c -4.24437,39.76214 -5.51267,76.73518 0,107.35381 z"
     fill="#e6e6e6"
     id="path204" />
  <circle
     cx="137.9565"
     cy="239.92693"
     fill="#ffffff"
     id="circle206"
     r="19.518881" />
  <path
     d="m 298.01126,160.87549 h -81.00333 c 5.66327,-30.6187 4.36036,-67.591796 0,-107.353815 h 81.00333 c -4.24437,39.762139 -5.51267,76.735175 0,107.353815 z"
     fill="#e6e6e6"
     id="path208" />
  <circle
     cx="257.99759"
     cy="104.27074"
     fill="#ffffff"
     id="circle210"
     r="19.518881" />
  <path
     d="m 298.01126,155.99577 h -81.00333 c 5.66327,-30.6187 4.36036,-67.591796 0,-107.353815 h 81.00333 c -4.24437,39.762139 -5.51267,76.735175 0,107.353815 z"
     fill="#e6e6e6"
     id="path212" />
  <circle
     cx="257.99759"
     cy="99.391022"
     fill="#ffffff"
     id="circle214"
     r="19.518881" />
  <path
     d="m 298.01126,160.87549 h -81.00333 c 5.66327,-30.6187 4.36036,-67.591796 0,-107.353815 h 81.00333 c -4.24437,39.762139 -5.51267,76.735175 0,107.353815 z"
     fill="#e6e6e6"
     id="path216" />
  <circle
     cx="257.99759"
     cy="104.27074"
     fill="#ffffff"
     id="circle218"
     r="19.518881" />
  <rect
     y="148.18822"
     width="265.4567"
     height="29.278311"
     fill="#e6e6e6"
     id="rect220"
     x="51.0975" />
  <rect
     y="293.60385"
     width="265.4567"
     height="29.278311"
     fill="#e6e6e6"
     id="rect222"
     x="51.0975" />
  <rect
     y="439.01947"
     width="265.4567"
     height="29.278311"
     fill="#e6e6e6"
     id="rect224"
     x="51.0975" />
  <path
     d="m 284.36335,277.06353 -6.9895,16.30885 -42.869,56.848 c 0,0 -29.35593,31.68576 -13.04708,33.54961 16.30885,1.86385 27.0261,-29.35593 27.0261,-29.35593 l 50.32447,-49.85849 5.59161,-22.83239 z"
     fill="#9f616a"
     id="path120" />
  <path
     d="m 305.79784,210.89622 -6.75441,1.891 c 0,0 -30.32927,80.5696 -27.53346,90.35488 2.79581,9.78528 15.37694,21.90046 20.96852,20.96854 5.59158,-0.93192 13.31935,-113.21442 13.31935,-113.21442 z"
     fill="#6c63ff"
     id="path122" />
  <path
     d="m 400.17549,624.94797 c 0,0 -2.96623,14.86337 5.94859,8.91483 8.91482,-5.94854 13.56255,-17.45249 13.56255,-17.45249 z"
     fill="#2f2e41"
     id="path124" />
  <path
     d="m 294.61466,289.64466 c 0,0 -94.59136,333.63256 -61.04174,343.41781 33.54962,9.78525 82.94217,-0.93191 82.47617,-7.45545 -0.466,-6.52354 -8.85338,-135.59648 -8.85338,-135.59648 0,0 48.92656,171.47593 109.50227,131.40268 60.57571,-40.07325 47.06271,-47.52866 41.47108,-50.32445 -5.59163,-2.79579 -89.9316,-135.59643 -89.46564,-160.2927 0.46596,-24.69627 -0.93194,-102.04684 -11.18321,-113.696 z"
     fill="#2f2e41"
     id="path126" />
  <path
     d="m 354.69506,171.02463 a 19.56832,19.56832 0 0 1 -2.431,-26.38344 c -0.394,0.36941 -0.77917,0.753 -1.14786,1.16083 a 19.57064,19.57064 0 0 0 29.03339,26.25075 c 0.36871,-0.40778 0.71167,-0.82951 1.0397,-1.25863 a 19.56831,19.56831 0 0 1 -26.49423,0.23049 z"
     fill="#2f2e41"
     id="path130" />
  <circle
     cx="352.86053"
     cy="135.4095"
     fill="#2f2e41"
     id="circle132"
     r="40.30616" />
  <path
     d="m 244.29016,631.6646 c 0,0 -10.71724,10.71725 0,10.71725 10.71724,0 20.96852,-6.9895 20.96852,-6.9895 z"
     fill="#2f2e41"
     id="path134" />
  <path
     d="m 327.23234,160.57172 c 0,0 6.9895,28.89 1.86388,34.48158 -5.12562,5.59158 -16.30886,9.78531 -16.30886,9.78531 l 1.86388,52.18834 c 0,0 21.4345,-7.45547 22.36643,-8.38741 0.93193,-0.93194 20.03658,-31.21979 20.03658,-31.21979 L 375.69294,199.713 c 0,0 -28.424,-13.51305 -20.03661,-36.81145 8.38739,-23.29841 -28.42399,-2.32983 -28.42399,-2.32983 z"
     fill="#9f616a"
     id="path136" />
  <circle
     cx="-89.981316"
     cy="363.58127"
     transform="rotate(-80.78253)"
     fill="#9f616a"
     id="circle138"
     r="24.230301" />
  <path
     d="m 357.52022,297.10011 c 0,0 10.71724,-35.41351 15.84288,-40.07318 5.12564,-4.65967 17.70677,-48.4606 17.70677,-48.4606 0,0 -7.92145,-10.71725 -14.445,-10.71725 -6.52355,0 -12.5811,2.32984 -20.03657,9.31938 -3.51093,3.29151 -9.91471,6.913 -15.70816,9.82385 a 17.37836,17.37836 0 0 1 -23.52431,-7.8517 c -1.15838,-2.46136 -1.53968,-4.81975 -0.37476,-6.63185 0,0 -17.24079,4.65968 -18.17273,11.18322 -0.93194,6.52354 0,20.03658 -1.39789,22.83239 -1.39789,2.79581 -5.5916,6.9895 -3.72773,24.69627 1.86387,17.70677 -1.94539,40.09737 -1.94539,40.09737 17.40631,16.60921 41.52063,6.35669 65.78289,-4.2179 z"
     fill="#6c63ff"
     id="path140" />
  <ellipse
     cx="344.24014"
     cy="125.3912"
     rx="20.50256"
     ry="13.97902"
     fill="#2f2e41"
     id="ellipse142" />
  <circle
     cx="379.18771"
     cy="104.88863"
     fill="#2f2e41"
     id="circle144"
     r="19.57062" />
  <path
     d="M 393.1667,118.86764 A 19.5683,19.5683 0 0 1 373.669,100.9279 c -0.0445,0.53829 -0.0729,1.08113 -0.0729,1.63091 a 19.57063,19.57063 0 0 0 39.14125,0.0166 v -0.0166 c 0,-0.54976 -0.0285,-1.09259 -0.0729,-1.63091 a 19.5683,19.5683 0 0 1 -19.49771,17.93974 z"
     fill="#2f2e41"
     id="path146" />
  <polygon
     points="505.528,420.53 499.018,420.53 486.008,534.01 528.918,532.57 "
     fill="#6c63ff"
     id="polygon148"
     transform="translate(-158.26267,-2.3487327)" />
  <polygon
     points="505.528,420.53 499.018,420.53 486.008,534.01 528.918,532.57 "
     opacity="0.2"
     style="isolation:isolate"
     id="polygon150"
     transform="translate(-158.26267,-2.3487327)" />
  <polygon
     points="503.358,419.08 495.408,533.29 592.798,540.52 600.748,429.2 "
     fill="#6c63ff"
     id="polygon152"
     transform="translate(-158.26267,-2.3487327)" />
  <circle
     cx="377.88528"
     cy="426.85132"
     opacity="0.2"
     style="isolation:isolate"
     id="circle154"
     r="1.4500099" />
  <circle
     cx="408.24527"
     cy="430.46133"
     opacity="0.2"
     style="isolation:isolate"
     id="circle156"
     r="1.4500099" />
  <path
     d="m 408.60527,430.47131 h -0.72 c 0,-0.31 0.51,-30.8 -17,-33.61 -3.45,-0.55 -6.27,0.23 -8.38,2.32 -7.23,7.17 -4.24,27.42 -4.21,27.62 l -0.71,0.11 c -0.13,-0.85 -3.07,-20.82 4.42,-28.24 2.28,-2.27 5.32,-3.12 9,-2.53 18.11999,2.9 17.61001,34.02001 17.6,34.33 z"
     fill="#3f3d56"
     id="path158" />
  <path
     d="m 392.46775,272.86982 -2.32984,26.09417 4.65967,78.28248 c 0,0 10.71725,39.60716 -5.59163,38.67529 -16.30888,-0.93187 -10.25129,-41.47108 -10.25129,-41.47108 l -7.45548,-90.86361 z"
     fill="#9f616a"
     id="path160" />
  <path
     d="m 378.95471,202.0428 12.11512,6.52355 c 0,0 16.30887,110.848 6.98949,121.56525 -9.31938,10.71725 -28.424,14.91095 -29.35593,10.71724 -0.93193,-4.19371 -4.19371,-89.41351 -4.19371,-89.41351 z"
     fill="#6c63ff"
     id="path162" />
</svg>
