<svg width="908" height="514" viewBox="0 0 908 514" fill="none" xmlns="http://www.w3.org/2000/svg">
<g clip-path="url(#clip0)">
<path d="M69.9992 510.891L69.0481 509.132C81.8015 502.234 97.6738 493.651 105.964 479.564C114.136 465.678 114.32 446.822 106.443 430.353C99.739 416.338 87.4248 403.781 70.8315 394.04C67.5585 392.119 64.1227 390.298 60.8 388.537C52.7685 384.281 44.4636 379.879 37.6157 373.634C28.184 365.033 21.0478 350.6 26.3667 337.743C28.1159 333.64 30.9807 330.109 34.6358 327.551C38.2908 324.994 42.5896 323.513 47.0442 323.276L47.157 325.273C43.0761 325.489 39.1376 326.845 35.7884 329.187C32.4392 331.529 29.8135 334.762 28.2092 338.521C23.2666 350.468 30.0478 364.026 38.9633 372.157C45.624 378.23 53.8152 382.572 61.7366 386.77C65.0781 388.541 68.5337 390.372 71.8442 392.316C88.7827 402.259 101.371 415.114 108.247 429.49C116.407 446.551 116.193 466.127 107.688 480.579C99.115 495.145 82.9712 503.876 69.9992 510.891Z" fill="#F1F1F1"/>
<path d="M59.7199 333.817C69.3849 333.817 77.2199 330.011 77.2199 325.317C77.2199 320.623 69.3849 316.817 59.7199 316.817C50.0549 316.817 42.2199 320.623 42.2199 325.317C42.2199 330.011 50.0549 333.817 59.7199 333.817Z" fill="#F1F1F1"/>
<path d="M73.7199 389.817C83.3849 389.817 91.2199 386.011 91.2199 381.317C91.2199 376.623 83.3849 372.817 73.7199 372.817C64.0549 372.817 56.2199 376.623 56.2199 381.317C56.2199 386.011 64.0549 389.817 73.7199 389.817Z" fill="#F1F1F1"/>
<path d="M41.7199 398.817C51.3849 398.817 59.2199 395.011 59.2199 390.317C59.2199 385.623 51.3849 381.817 41.7199 381.817C32.0549 381.817 24.2199 385.623 24.2199 390.317C24.2199 395.011 32.0549 398.817 41.7199 398.817Z" fill="#F1F1F1"/>
<path d="M91.7199 445.817C101.385 445.817 109.22 442.011 109.22 437.317C109.22 432.623 101.385 428.817 91.7199 428.817C82.0549 428.817 74.2199 432.623 74.2199 437.317C74.2199 442.011 82.0549 445.817 91.7199 445.817Z" fill="#F1F1F1"/>
<path d="M126.72 445.817C136.385 445.817 144.22 442.011 144.22 437.317C144.22 432.623 136.385 428.817 126.72 428.817C117.055 428.817 109.22 432.623 109.22 437.317C109.22 442.011 117.055 445.817 126.72 445.817Z" fill="#F1F1F1"/>
<path d="M905.807 17.4294H343.011V284.486H905.807V17.4294Z" fill="#E6E6E6"/>
<path d="M889.715 40.33H359.104V263.144H889.715V40.33Z" fill="white"/>
<path d="M905.567 2H342.771V25.9092H905.567V2Z" fill="#6C63FF"/>
<path d="M360.539 17.4906C362.986 17.4906 364.97 15.5066 364.97 13.0591C364.97 10.6117 362.986 8.62762 360.539 8.62762C358.091 8.62762 356.107 10.6117 356.107 13.0591C356.107 15.5066 358.091 17.4906 360.539 17.4906Z" fill="white"/>
<path d="M377.359 17.4906C379.807 17.4906 381.791 15.5066 381.791 13.0591C381.791 10.6117 379.807 8.62762 377.359 8.62762C374.912 8.62762 372.928 10.6117 372.928 13.0591C372.928 15.5066 374.912 17.4906 377.359 17.4906Z" fill="white"/>
<path d="M394.18 17.4906C396.628 17.4906 398.612 15.5066 398.612 13.0591C398.612 10.6117 396.628 8.62762 394.18 8.62762C391.733 8.62762 389.749 10.6117 389.749 13.0591C389.749 15.5066 391.733 17.4906 394.18 17.4906Z" fill="white"/>
<path d="M596.432 93.2079C595.863 93.2079 595.317 93.4341 594.914 93.8367C594.512 94.2393 594.286 94.7853 594.286 95.3547C594.286 95.9241 594.512 96.4702 594.914 96.8728C595.317 97.2754 595.863 97.5016 596.432 97.5016H714.236C714.806 97.5016 715.352 97.2754 715.754 96.8728C716.157 96.4702 716.383 95.9241 716.383 95.3547C716.383 94.7853 716.157 94.2393 715.754 93.8367C715.352 93.4341 714.806 93.2079 714.236 93.2079H596.432Z" fill="#E6E6E6"/>
<path d="M596.432 106.09C595.864 106.092 595.319 106.318 594.917 106.721C594.516 107.123 594.29 107.669 594.29 108.237C594.29 108.806 594.516 109.351 594.917 109.754C595.319 110.156 595.864 110.383 596.432 110.384H656.574C657.142 110.383 657.687 110.156 658.089 109.754C658.49 109.351 658.716 108.806 658.716 108.237C658.716 107.669 658.49 107.123 658.089 106.721C657.687 106.318 657.142 106.092 656.574 106.09H596.432Z" fill="#E6E6E6"/>
<path d="M593.468 168.444C592.899 168.444 592.353 168.67 591.95 169.073C591.547 169.475 591.321 170.021 591.321 170.591C591.321 171.16 591.547 171.706 591.95 172.109C592.353 172.511 592.899 172.737 593.468 172.737H814.351C814.92 172.737 815.466 172.511 815.869 172.109C816.272 171.706 816.498 171.16 816.498 170.591C816.498 170.021 816.272 169.475 815.869 169.073C815.466 168.67 814.92 168.444 814.351 168.444H593.468Z" fill="#E6E6E6"/>
<path d="M593.468 181.326C592.899 181.327 592.355 181.554 591.953 181.957C591.551 182.359 591.326 182.905 591.326 183.473C591.326 184.042 591.551 184.587 591.953 184.99C592.355 185.392 592.899 185.619 593.468 185.62H756.688C757.257 185.619 757.802 185.392 758.203 184.99C758.605 184.587 758.831 184.042 758.831 183.473C758.831 182.905 758.605 182.359 758.203 181.957C757.802 181.554 757.257 181.327 756.688 181.326H593.468Z" fill="#E6E6E6"/>
<path d="M593.468 193.917C592.899 193.918 592.355 194.145 591.953 194.548C591.551 194.95 591.326 195.496 591.326 196.064C591.326 196.633 591.551 197.178 591.953 197.581C592.355 197.983 592.899 198.21 593.468 198.211H814.351C814.92 198.21 815.464 197.983 815.866 197.581C816.268 197.178 816.493 196.633 816.493 196.064C816.493 195.496 816.268 194.95 815.866 194.548C815.464 194.145 814.92 193.918 814.351 193.917H593.468Z" fill="#E6E6E6"/>
<path d="M593.468 206.8C592.899 206.801 592.355 207.028 591.953 207.43C591.551 207.833 591.326 208.378 591.326 208.947C591.326 209.515 591.551 210.061 591.953 210.463C592.355 210.866 592.899 211.092 593.468 211.094H756.688C757.257 211.092 757.802 210.866 758.203 210.463C758.605 210.061 758.831 209.515 758.831 208.947C758.831 208.378 758.605 207.833 758.203 207.43C757.802 207.028 757.257 206.801 756.688 206.8H593.468Z" fill="#E6E6E6"/>
<path d="M477.989 177.157C488.313 177.157 496.683 168.787 496.683 158.462C496.683 148.138 488.313 139.768 477.989 139.768C467.664 139.768 459.295 148.138 459.295 158.462C459.295 168.787 467.664 177.157 477.989 177.157Z" fill="#A0616A"/>
<path d="M472.069 143.507C472.069 143.507 480.793 145.844 485.311 146.778C489.829 147.713 489.361 145.065 489.361 145.065C489.361 145.065 495.281 145.844 494.97 145.22C494.658 144.597 497.462 141.326 494.191 137.587C490.919 133.848 491.854 131.044 491.854 131.044H489.05L488.271 129.953H483.909C483.909 129.953 479.086 125.725 470.518 126.971C461.95 128.217 451.817 131.511 450.882 136.652C450.755 137.35 450.588 138.124 450.395 138.943C448.052 148.834 453.03 158.089 458.193 166.845C459.462 168.997 465.6 173.689 465.443 170.47C465.286 167.251 459.918 160.02 463.657 159.553C467.395 159.085 473.783 149.582 472.069 143.507Z" fill="#2F2E41"/>
<path d="M467.384 218.898C463.775 218.609 460.196 218.021 456.685 217.14L456.882 213.412L458.519 183.77L458.533 183.542H491.464L496.632 210.835L497.329 214.518C495.965 215.048 494.586 215.548 493.177 215.988C493.161 215.988 493.161 216.003 493.147 216.003C491.192 216.609 489.206 217.14 487.205 217.579C484.545 218.153 481.853 218.568 479.143 218.822C477.049 219.03 474.945 219.131 472.84 219.125C471.021 219.125 469.187 219.049 467.384 218.898Z" fill="#6C63FF"/>
<path d="M446.213 213.624C444.849 213.033 443.531 212.396 442.227 211.73L441.667 211.442C441.288 211.245 440.894 211.032 440.515 210.82C439.999 210.532 439.499 210.244 439.015 209.957C438.545 209.684 438.06 209.396 437.59 209.108C437.56 209.093 437.545 209.078 437.515 209.078C435.878 208.032 434.271 206.956 432.726 205.789C432.468 205.592 432.21 205.395 431.952 205.198L431.68 200.834L432.074 200.591L458.519 183.77L458.882 183.542L458.912 183.527L462.64 183.542V197.424C464.747 200.47 466.171 206.85 467.05 215.2C467.172 216.397 467.278 217.625 467.384 218.898C463.775 218.609 460.196 218.021 456.685 217.14C456.306 217.064 455.942 216.973 455.563 216.867C453.355 216.289 451.179 215.591 449.047 214.776C448.395 214.533 447.759 214.275 447.122 214.018L447.062 213.988C446.789 213.866 446.486 213.745 446.213 213.624Z" fill="#2F2E41"/>
<path d="M440.515 210.82C439.999 210.532 439.499 210.244 439.015 209.957C438.545 209.684 438.06 209.396 437.59 209.108C437.56 209.093 437.545 209.078 437.515 209.078C435.878 208.032 434.271 206.956 432.726 205.789C432.468 205.592 432.21 205.395 431.952 205.198C431.832 205.092 431.71 205.001 431.574 204.895C430.604 204.152 429.664 203.38 428.755 202.561C428.71 202.531 428.68 202.485 428.634 202.455C429.552 201.749 430.582 201.201 431.68 200.834L432.756 201.152L440.424 203.455L440.469 206.562L440.515 210.82Z" fill="#2F2E41"/>
<path d="M505.088 210.866C504.633 211.108 504.179 211.351 503.724 211.578C503.618 211.639 503.527 211.684 503.436 211.73C502.83 212.033 502.239 212.336 501.633 212.624C501.618 212.639 501.587 212.639 501.587 212.654C501.557 212.669 501.512 212.684 501.481 212.699C500.118 213.351 498.738 213.957 497.329 214.518C495.965 215.048 494.586 215.549 493.177 215.988C493.161 215.988 493.161 216.003 493.147 216.003C491.192 216.609 489.206 217.14 487.205 217.579C487.183 216.334 487.347 215.093 487.691 213.897L487.706 213.684L489.009 192.589L487.266 183.542L492.267 182.8L519.773 197.606C519.773 197.606 516.742 200.636 504.3 207.092C503.2 207.663 504.815 209.562 505.088 210.866Z" fill="#2F2E41"/>
<path d="M478.81 215.185C476.84 215.367 474.84 215.458 472.84 215.458C470.9 215.458 468.975 215.382 467.05 215.2C467.172 216.397 467.277 217.625 467.384 218.898C469.187 219.049 471.021 219.125 472.84 219.125C474.945 219.131 477.049 219.03 479.144 218.822C481.853 218.568 484.545 218.153 487.205 217.579C487.183 216.334 487.347 215.093 487.691 213.897L487.706 213.684C484.78 214.396 481.808 214.898 478.81 215.185ZM536.078 130.138C532.876 120.939 527.706 112.549 520.928 105.554C514.15 98.5586 505.928 93.1259 496.835 89.6346C487.742 86.1433 477.996 84.6774 468.278 85.3394C458.561 86.0013 449.104 88.775 440.568 93.467C432.032 98.1591 424.623 104.657 418.856 112.507C413.09 120.356 409.105 129.37 407.179 138.918C405.254 148.466 405.434 158.319 407.708 167.79C409.982 177.262 414.294 186.123 420.344 193.756C420.95 194.514 421.572 195.272 422.209 195.999C422.269 196.06 422.3 196.105 422.345 196.151C423.909 197.955 425.574 199.67 427.331 201.288C427.755 201.682 428.194 202.076 428.634 202.455C428.679 202.485 428.71 202.531 428.755 202.561C429.664 203.379 430.604 204.152 431.573 204.895C431.71 205.001 431.832 205.092 431.952 205.198C432.211 205.395 432.468 205.592 432.726 205.789C434.271 206.956 435.878 208.032 437.515 209.077C437.545 209.077 437.56 209.093 437.59 209.108C438.06 209.396 438.545 209.684 439.014 209.956C439.5 210.244 440 210.532 440.515 210.82C440.894 211.032 441.288 211.245 441.667 211.442L442.227 211.729C443.53 212.396 444.849 213.033 446.213 213.624C446.486 213.745 446.789 213.866 447.062 213.988L447.122 214.018C447.759 214.275 448.395 214.533 449.047 214.776C451.179 215.591 453.355 216.289 455.563 216.867C455.942 216.973 456.306 217.064 456.685 217.14C460.196 218.021 463.775 218.609 467.384 218.898C469.187 219.049 471.021 219.125 472.84 219.125C474.945 219.131 477.049 219.03 479.143 218.822C481.853 218.568 484.545 218.153 487.205 217.579C489.206 217.14 491.191 216.609 493.146 216.003C493.161 216.003 493.161 215.988 493.177 215.988C494.586 215.548 495.965 215.048 497.329 214.518C498.738 213.957 500.118 213.351 501.481 212.699C501.512 212.684 501.557 212.669 501.587 212.654C501.587 212.639 501.618 212.639 501.633 212.624C502.239 212.336 502.83 212.033 503.436 211.73C503.527 211.684 503.618 211.639 503.724 211.578C504.179 211.351 504.633 211.108 505.088 210.866C505.118 210.851 505.133 210.835 505.163 210.82C506.361 210.154 507.543 209.456 508.71 208.714C509.028 208.517 509.346 208.32 509.665 208.092C510.135 207.805 510.589 207.486 511.028 207.168C511.62 206.759 512.21 206.335 512.787 205.895C512.978 205.772 513.16 205.635 513.332 205.486C514.742 204.425 516.105 203.304 517.408 202.122C527.291 193.315 534.341 181.776 537.664 168.962C540.987 156.149 540.435 142.638 536.078 130.138L536.078 130.138ZM516.272 198.212C514.631 199.755 512.912 201.212 511.12 202.576C510.726 202.879 510.316 203.182 509.907 203.455C509.513 203.758 509.119 204.046 508.71 204.319C508.362 204.562 508.013 204.804 507.649 205.031C507.619 205.062 507.574 205.077 507.543 205.107C507.285 205.289 507.013 205.456 506.755 205.622C505.952 206.122 505.118 206.623 504.3 207.092C504.103 207.198 503.921 207.32 503.724 207.426C503.618 207.486 503.512 207.547 503.391 207.607C502.936 207.865 502.481 208.092 502.027 208.335C501.966 208.38 501.891 208.396 501.83 208.441C501.807 208.445 501.786 208.455 501.769 208.471C501.451 208.638 501.133 208.79 500.815 208.941C500.542 209.078 500.284 209.214 500.011 209.335C498.905 209.866 497.768 210.366 496.632 210.835C495.435 211.32 494.222 211.76 492.995 212.169C492.692 212.275 492.373 212.396 492.055 212.487C490.615 212.942 489.176 213.351 487.706 213.684C484.78 214.396 481.808 214.898 478.811 215.185C476.84 215.367 474.84 215.458 472.84 215.458C470.9 215.458 468.975 215.382 467.05 215.2C463.617 214.886 460.216 214.288 456.882 213.412C456.76 213.381 456.624 213.351 456.503 213.321C453.768 212.608 451.089 211.696 448.486 210.593C448.35 210.532 448.198 210.487 448.077 210.426C447.925 210.366 447.789 210.32 447.668 210.259C447.516 210.199 447.38 210.138 447.244 210.078C446.107 209.578 445.001 209.032 443.895 208.471L443.379 208.198C442.394 207.683 441.424 207.153 440.469 206.562C440.136 206.38 439.788 206.168 439.454 205.956C439.075 205.728 438.696 205.486 438.332 205.243C438.242 205.183 438.151 205.122 438.06 205.062C437.211 204.486 436.348 203.91 435.529 203.289C434.954 202.864 434.393 202.455 433.832 202.016C433.468 201.743 433.105 201.455 432.756 201.152C432.529 200.985 432.302 200.788 432.074 200.591C431.771 200.333 431.468 200.076 431.165 199.803C430.695 199.424 430.256 199 429.831 198.606C428.125 197.033 426.51 195.363 424.997 193.605C424.482 193.029 423.996 192.453 423.527 191.847C423.418 191.728 423.316 191.601 423.224 191.468C415.594 181.837 410.933 170.193 409.808 157.958C408.684 145.723 411.144 133.425 416.89 122.564C422.636 111.703 431.418 102.749 442.166 96.795C452.913 90.8406 465.162 88.1429 477.416 89.0311C489.671 89.9192 501.403 94.3549 511.179 101.797C520.956 109.239 528.356 119.365 532.475 130.941C536.595 142.517 537.256 155.041 534.379 166.986C531.502 178.932 525.21 189.781 516.272 198.212L516.272 198.212Z" fill="#3F3D56"/>
<path d="M165.436 498.698L177.696 498.697L183.528 451.409L165.434 451.41L165.436 498.698Z" fill="#A0616A"/>
<path d="M162.309 494.695L186.453 494.694H186.454C190.535 494.694 194.448 496.315 197.334 499.201C200.219 502.086 201.84 506 201.841 510.08V510.58L162.31 510.582L162.309 494.695Z" fill="#2F2E41"/>
<path d="M211.436 498.698L223.696 498.697L229.528 451.409L211.434 451.41L211.436 498.698Z" fill="#A0616A"/>
<path d="M208.309 494.695L232.453 494.694H232.454C236.535 494.694 240.448 496.315 243.334 499.201C246.219 502.086 247.84 506 247.841 510.08V510.58L208.31 510.582L208.309 494.695Z" fill="#2F2E41"/>
<path d="M128.237 311.84C129.24 310.766 129.996 309.484 130.45 308.086C130.905 306.688 131.047 305.207 130.868 303.748C130.688 302.289 130.191 300.887 129.411 299.641C128.631 298.395 127.587 297.335 126.353 296.536L134.871 261.831L117.379 268.064L111.972 300.065C110.767 302.227 110.397 304.756 110.932 307.172C111.466 309.589 112.869 311.725 114.874 313.177C116.879 314.628 119.347 315.294 121.809 315.047C124.272 314.801 126.559 313.66 128.237 311.84V311.84Z" fill="#9E616A"/>
<path d="M258.378 308.84C257.374 307.766 256.619 306.484 256.164 305.086C255.709 303.688 255.567 302.207 255.746 300.748C255.926 299.289 256.423 297.887 257.203 296.641C257.983 295.395 259.027 294.335 260.261 293.536L251.743 258.831L269.235 265.064L274.642 297.065C275.847 299.227 276.218 301.756 275.683 304.172C275.148 306.589 273.745 308.725 271.74 310.177C269.735 311.628 267.268 312.294 264.805 312.047C262.342 311.801 260.055 310.66 258.378 308.84V308.84Z" fill="#9E616A"/>
<path d="M144.367 287.513L161.36 486.578L186.224 484.311L196.175 330.461L205.033 391.379L206.807 488.145L229.307 486.645L241.801 382.545L238.736 281.728L153.319 273.078L144.367 287.513Z" fill="#2F2E41"/>
<path d="M191.112 106.368C205.353 106.368 216.898 94.8235 216.898 80.5825C216.898 66.3414 205.353 54.7967 191.112 54.7967C176.871 54.7967 165.326 66.3414 165.326 80.5825C165.326 94.8235 176.871 106.368 191.112 106.368Z" fill="#A0616A"/>
<path d="M182.947 59.9538C182.947 59.9538 194.98 63.177 201.212 64.4663C207.443 65.7557 206.798 62.1026 206.798 62.1026C206.798 62.1026 214.964 63.177 214.534 62.3175C214.104 61.458 217.972 56.9455 213.46 51.7883C208.947 46.6312 210.237 42.7633 210.237 42.7633H206.369L205.294 41.2592H199.278C199.278 41.2592 192.626 35.4262 180.807 37.1452C168.989 38.8642 155.012 43.408 153.723 50.4991C153.548 51.4609 153.318 52.5294 153.05 53.6581C149.819 67.3017 156.685 80.0674 163.807 92.1451C165.557 95.1133 174.024 101.586 173.807 97.1451C173.59 92.7044 166.186 82.7312 171.343 82.0866C176.5 81.4419 185.31 68.3342 182.947 59.9538Z" fill="#2F2E41"/>
<path d="M164.28 115.176H209.691L241.801 284.751C241.801 284.751 213.807 287.145 197.807 293.145C181.807 299.145 155.209 279.439 155.209 279.439L164.28 115.176Z" fill="#6C63FF"/>
<path d="M169.949 134.326V115.176L164.807 115.145L127.24 139.03L135.392 269.893C135.392 269.893 145.04 313.551 159.673 313.098C174.307 312.645 185.591 157.007 169.949 134.326Z" fill="#2F2E41"/>
<path d="M139.307 142.645L127.24 139.03C127.24 139.03 118.307 141.645 118.307 150.645C118.307 159.645 110.61 287.513 110.61 287.513L135.061 289.674L140.307 224.645L139.307 142.645Z" fill="#2F2E41"/>
<path d="M206.307 127.645L203.902 115.176L210.807 114.145L235.807 124.145C235.807 124.145 258.307 288.645 248.307 293.645C238.307 298.645 231.555 294.771 231.555 294.771C231.555 294.771 198.664 173.445 204.485 157.045L206.307 127.645Z" fill="#2F2E41"/>
<path d="M218.307 126.645L222.574 124.788C222.574 124.788 235.097 118.582 242.202 131.114C249.307 143.645 274.307 283.645 274.307 283.645L253.737 287.513L238.358 237.129L218.307 126.645Z" fill="#2F2E41"/>
<path d="M384 511.145H3C2.73478 511.145 2.48043 511.04 2.29289 510.852C2.10536 510.665 2 510.41 2 510.145C2 509.88 2.10536 509.626 2.29289 509.438C2.48043 509.251 2.73478 509.145 3 509.145H384C384.265 509.145 384.52 509.251 384.707 509.438C384.895 509.626 385 509.88 385 510.145C385 510.41 384.895 510.665 384.707 510.852C384.52 511.04 384.265 511.145 384 511.145Z" fill="#CACACA"/>
</g>
<rect x="1" y="1" width="905.807" height="511.145" stroke="black" stroke-width="2" stroke-linejoin="round"/>
<defs>
<clipPath id="clip0">
</clipPath>
</defs>
</svg>
