<svg width="589" height="519" viewBox="0 0 589 519" fill="none" xmlns="http://www.w3.org/2000/svg">
<g id="undraw shopping app flsj">
<path id="Path 23" d="M497.24 455.455L428.915 407.13C451.959 384.682 472.915 352.719 492.961 316.579L561.286 364.905C533.985 395.91 510.856 426.34 497.24 455.455Z" fill="#6C63FF"/>
<path id="Ellipse 6" d="M497.258 404.004C508.395 404.004 517.424 394.975 517.424 383.838C517.424 372.701 508.395 363.672 497.258 363.672C486.12 363.672 477.092 372.701 477.092 383.838C477.092 394.975 486.12 404.004 497.258 404.004Z" fill="white"/>
<g id="bottle">
<path id="Path 24" d="M167.647 234.934H160.147C159.883 234.934 159.63 235.039 159.444 235.225C159.258 235.412 159.153 235.664 159.153 235.928V239.22C159.153 239.484 159.258 239.736 159.444 239.923C159.63 240.109 159.883 240.214 160.147 240.214H161.385V245.146H166.399V240.214H167.642C167.772 240.214 167.902 240.188 168.022 240.138C168.143 240.088 168.252 240.015 168.345 239.923C168.437 239.831 168.51 239.721 168.56 239.6C168.61 239.48 168.636 239.351 168.636 239.22V235.928C168.636 235.797 168.61 235.668 168.56 235.548C168.51 235.427 168.437 235.317 168.345 235.225C168.252 235.133 168.143 235.06 168.022 235.01C167.902 234.96 167.772 234.934 167.642 234.934H167.647Z" fill="#E6E6E6"/>
<path id="Path 25" d="M175.159 265.062C170.566 258.341 168.218 250.338 168.451 242.201C168.455 242.013 168.394 241.83 168.279 241.682C168.163 241.533 167.999 241.43 167.816 241.389V239.967H159.895V241.367H159.785C159.678 241.367 159.572 241.388 159.474 241.429C159.375 241.47 159.286 241.53 159.21 241.606C159.135 241.681 159.075 241.771 159.034 241.87C158.994 241.968 158.973 242.074 158.973 242.181C158.973 242.201 158.973 242.22 158.973 242.24C159.703 250.543 157.463 258.835 152.651 265.64C152.373 266.037 152.231 266.513 152.246 266.997L153.112 293.789C153.133 294.387 153.384 294.953 153.812 295.37C154.241 295.787 154.814 296.022 155.412 296.027H173.328C173.933 296.022 174.511 295.781 174.941 295.355C175.37 294.93 175.617 294.354 175.628 293.749L175.962 267.737C175.972 266.785 175.691 265.852 175.159 265.062Z" fill="#6C63FF"/>
<path id="Path 26" opacity="0.2" d="M166.085 236.007C166.085 236.576 165.859 237.122 165.456 237.524C165.054 237.926 164.508 238.153 163.939 238.153C163.37 238.153 162.825 237.926 162.422 237.524C162.02 237.122 161.794 236.576 161.794 236.007" fill="black"/>
<path id="Rectangle 7" d="M171.67 270.224H156.546V280.307H171.67V270.224Z" fill="white"/>
</g>
<path id="Path 27" d="M404.985 339.598H390.948C390.454 339.598 389.981 339.794 389.632 340.143C389.283 340.492 389.087 340.965 389.087 341.459V347.621C389.087 348.115 389.283 348.588 389.632 348.937C389.981 349.286 390.454 349.482 390.948 349.482H393.275V358.715H402.661V349.48H404.985C405.478 349.48 405.952 349.284 406.301 348.935C406.65 348.586 406.846 348.113 406.846 347.619V341.456C406.846 340.962 406.65 340.489 406.301 340.14C405.952 339.791 405.478 339.595 404.985 339.595V339.598Z" fill="#E6E6E6"/>
<path id="Path 28" d="M419.049 395.995C410.451 383.414 406.055 368.434 406.492 353.201C406.5 352.85 406.386 352.506 406.169 352.229C405.953 351.952 405.647 351.759 405.304 351.682V349.02H390.477V351.646H390.277C390.077 351.646 389.879 351.686 389.695 351.763C389.511 351.839 389.343 351.951 389.202 352.093C389.061 352.234 388.949 352.402 388.873 352.587C388.797 352.771 388.758 352.969 388.758 353.169C388.758 353.206 388.758 353.243 388.758 353.28C389.926 369.563 385.982 384.166 376.925 397.088C376.404 397.831 376.137 398.722 376.166 399.629L377.785 449.78C377.824 450.898 378.293 451.958 379.094 452.738C379.895 453.519 380.966 453.96 382.085 453.97H415.622C416.754 453.961 417.838 453.51 418.642 452.714C419.447 451.917 419.908 450.838 419.929 449.706L420.554 401.013C420.574 399.226 420.049 397.476 419.049 395.995V395.995Z" fill="#6C63FF"/>
<path id="Path 29" opacity="0.2" d="M402.061 341.606C402.044 342.66 401.614 343.665 400.863 344.405C400.111 345.144 399.1 345.559 398.045 345.559C396.991 345.559 395.979 345.144 395.228 344.405C394.477 343.665 394.047 342.66 394.03 341.606" fill="black"/>
<path id="Path 30" d="M413.74 412.653H384.549C384.117 412.654 383.69 412.747 383.298 412.928C382.905 413.109 382.557 413.372 382.275 413.7C381.994 414.028 381.787 414.412 381.668 414.828C381.549 415.243 381.522 415.679 381.587 416.106L385.998 444.779H411.328L416.686 416.202C416.766 415.769 416.751 415.324 416.64 414.898C416.529 414.472 416.326 414.076 416.045 413.737C415.764 413.398 415.411 413.125 415.013 412.938C414.615 412.751 414.18 412.654 413.74 412.653V412.653Z" fill="white"/>
<path id="Path 31" d="M364.931 455.38H281.243C287.094 423.747 285.743 385.548 281.243 344.469H364.931C360.546 385.544 359.236 423.742 364.931 455.38Z" fill="#6C63FF"/>
<path id="Ellipse 7" d="M323.591 417.061C334.728 417.061 343.757 408.032 343.757 396.895C343.757 385.758 334.728 376.729 323.591 376.729C312.453 376.729 303.425 385.758 303.425 396.895C303.425 408.032 312.453 417.061 323.591 417.061Z" fill="white"/>
<path id="Path 32" d="M22.6279 106.322L41.4149 104.614L53.3709 75.58L32.0219 63.624L22.6279 106.322Z" fill="#FFB8B8"/>
<path id="Path 33" d="M195.045 186.03C195.67 184.472 195.915 182.788 195.761 181.117C195.608 179.445 195.059 177.834 194.161 176.417C193.262 174.999 192.04 173.815 190.594 172.963C189.148 172.11 187.52 171.613 185.845 171.513L156.675 169.774L152.38 184.056L182.409 192.303C184.918 192.992 187.593 192.733 189.923 191.576C192.253 190.419 194.077 188.445 195.045 186.03V186.03Z" fill="#FFB8B8"/>
<path id="Path 34" d="M163.724 192.543L163.403 165.743L98.6099 155.404L48.6949 98.157C46.0979 95.1785 42.5094 93.2422 38.5941 92.7067C34.6789 92.1713 30.7022 93.0731 27.4009 95.245V95.245C25.402 96.5601 23.7164 98.2981 22.4632 100.336C21.2099 102.374 20.4196 104.663 20.1482 107.04C19.8767 109.417 20.1307 111.825 20.8921 114.094C21.6536 116.362 22.904 118.435 24.5549 120.167L65.7349 170.845L163.724 192.543Z" fill="#575A89"/>
<path id="Path 35" d="M8.1109 494.023H25.1899L67.5529 302.489L111.44 361.658L137.059 489.753H153.285L149.869 352.265L92.6529 205.38H36.2909C20.8909 233.255 8.80589 261.988 22.6269 291.63L8.1109 494.023Z" fill="#2F2E41"/>
<path id="Path 36" d="M126.585 505.656C126.396 506.26 126.338 506.898 126.415 507.526C126.492 508.155 126.702 508.76 127.03 509.301C127.359 509.842 127.8 510.306 128.322 510.664C128.845 511.021 129.437 511.263 130.061 511.374L171.854 518.791C173.505 519.093 175.21 518.78 176.647 517.912C178.084 517.044 179.153 515.68 179.654 514.078V514.078C180.141 512.547 180.073 510.893 179.462 509.407C178.851 507.921 177.735 506.697 176.312 505.952C167.122 501.234 159.214 494.358 153.264 485.914C148.671 490.191 143.537 489.789 138.085 486.637L132.303 487.36L126.585 505.656Z" fill="#2F2E41"/>
<path id="Path 37" d="M0.202896 505.656C0.0140461 506.26 -0.043892 506.898 0.0329433 507.526C0.109779 508.155 0.319635 508.76 0.648513 509.301C0.977391 509.842 1.41776 510.306 1.94029 510.664C2.46282 511.021 3.05551 511.263 3.67891 511.374L45.4719 518.791C47.1232 519.093 48.828 518.78 50.2648 517.912C51.7016 517.044 52.7712 515.68 53.2719 514.078V514.078C53.7591 512.547 53.6911 510.893 53.0799 509.407C52.4687 507.921 51.3534 506.697 49.9299 505.952C40.7416 501.233 32.8342 494.358 26.8849 485.914C22.2919 490.191 17.1579 489.789 11.7059 486.637L5.9239 487.36L0.202896 505.656Z" fill="#2F2E41"/>
<path id="Ellipse 8" d="M53.7979 86.254C67.0036 86.254 77.7089 75.5487 77.7089 62.343C77.7089 49.1373 67.0036 38.432 53.7979 38.432C40.5922 38.432 29.8869 49.1373 29.8869 62.343C29.8869 75.5487 40.5922 86.254 53.7979 86.254Z" fill="#FFB8B8"/>
<path id="Path 38" d="M32.4489 211.787L94.7849 210.08L76.4849 152.459C87.8619 134.22 76.4119 115.999 60.2069 97.782L47.3969 89.242L26.8969 87.534C18.0234 97.029 13.1681 109.589 13.3479 122.584C13.7539 150.412 18.6849 180.704 32.4489 211.787Z" fill="#575A89"/>
<g id="arm">
<path id="Path 39" d="M175.676 250.572C176.863 249.385 177.751 247.934 178.267 246.336C178.783 244.739 178.913 243.042 178.644 241.385C178.376 239.728 177.717 238.159 176.723 236.807C175.729 235.454 174.428 234.357 172.927 233.606L146.794 220.531L137.227 231.972L161.59 251.372C163.626 252.992 166.188 253.806 168.785 253.658C171.383 253.511 173.836 252.412 175.676 250.572Z" fill="#FFB8B8"/>
<path id="Path 40" d="M144.318 244.238L154.566 219.473L99.0659 184.479L75.6959 112.211C74.48 108.451 71.9425 105.259 68.5534 103.227C65.1644 101.194 61.1535 100.459 57.2639 101.157C54.9089 101.58 52.6753 102.514 50.7213 103.895C48.7672 105.276 47.1403 107.069 45.9555 109.148C44.7707 111.227 44.057 113.54 43.8647 115.925C43.6725 118.31 44.0064 120.708 44.8429 122.95L62.7659 185.741L144.318 244.238Z" fill="#575A89"/>
</g>
<path id="Path 41" d="M14.5149 52.949C14.5149 62.249 20.5569 76.661 28.1789 82.838C33.3069 86.994 40.0789 86.819 42.6959 81.13C45.3759 75.294 54.6149 61.578 70.8769 52.949C92.5549 41.449 63.1889 21.768 42.6959 24.768C27.2959 27.023 14.5149 37.385 14.5149 52.949Z" fill="#2F2E41"/>
<path id="Ellipse 9" d="M29.0329 40.14C38.4653 40.14 46.1119 32.4935 46.1119 23.061C46.1119 13.6285 38.4653 5.98201 29.0329 5.98201C19.6004 5.98201 11.9539 13.6285 11.9539 23.061C11.9539 32.4935 19.6004 40.14 29.0329 40.14Z" fill="#2F2E41"/>
<path id="Path 42" d="M48.6739 17.08C48.6722 12.7739 47.043 8.6275 44.1128 5.47202C41.1827 2.31654 37.1681 0.385144 32.8739 0.0650024C33.2979 0.0330024 33.7229 0 34.1549 0C38.6846 0 43.0289 1.79944 46.2319 5.00247C49.4349 8.2055 51.2344 12.5497 51.2344 17.0795C51.2344 21.6093 49.4349 25.9535 46.2319 29.1565C43.0289 32.3596 38.6846 34.159 34.1549 34.159C33.7229 34.159 33.2979 34.126 32.8739 34.094C37.1681 33.7739 41.1827 31.8425 44.1128 28.687C47.043 25.5315 48.6722 21.3852 48.6739 17.079V17.08Z" fill="#2F2E41"/>
<path id="Ellipse 10" d="M54.2249 70.883C56.3473 70.883 58.0679 68.5889 58.0679 65.759C58.0679 62.9291 56.3473 60.635 54.2249 60.635C52.1025 60.635 50.3819 62.9291 50.3819 65.759C50.3819 68.5889 52.1025 70.883 54.2249 70.883Z" fill="#FFB8B8"/>
<path id="Path 43" d="M538.136 462.701H272.264L215.964 196.55H167.914V184.608H225.643L281.943 450.758H538.136V462.701Z" fill="#3F3D56"/>
<path id="Ellipse 11" d="M311.226 511.324C325.359 511.324 336.817 499.867 336.817 485.733C336.817 471.6 325.359 460.142 311.226 460.142C297.092 460.142 285.635 471.6 285.635 485.733C285.635 499.867 297.092 511.324 311.226 511.324Z" fill="#3F3D56"/>
<path id="Ellipse 12" d="M502.308 511.324C516.441 511.324 527.899 499.867 527.899 485.733C527.899 471.6 516.441 460.142 502.308 460.142C488.174 460.142 476.717 471.6 476.717 485.733C476.717 499.867 488.174 511.324 502.308 511.324Z" fill="#3F3D56"/>
<path id="Path 44" d="M533.285 457.08H274.61L228.969 231.525H576.12C577.891 231.525 579.642 231.909 581.251 232.65C582.86 233.391 584.289 234.472 585.44 235.818C586.592 237.165 587.438 238.744 587.92 240.449C588.403 242.153 588.511 243.942 588.236 245.692L545.403 446.717C544.962 449.611 543.496 452.25 541.271 454.152C539.046 456.055 536.212 457.094 533.285 457.08V457.08ZM277.416 453.668H533.285C535.396 453.677 537.441 452.927 539.045 451.554C540.65 450.182 541.708 448.278 542.027 446.191L584.86 245.166C585.059 243.903 584.981 242.612 584.633 241.382C584.285 240.151 583.674 239.011 582.843 238.039C582.012 237.067 580.981 236.287 579.819 235.752C578.658 235.218 577.394 234.941 576.116 234.941H233.111L277.416 453.668Z" fill="#3F3D56"/>
<path id="Path 45" d="M324.898 456.356L295.008 233.51L298.374 232.954L328.264 455.8L324.898 456.356Z" fill="#3F3D56"/>
<path id="Path 46" d="M491.097 454.644L487.728 454.098L516.745 232.956L520.114 233.502L491.097 454.644Z" fill="#3F3D56"/>
<path id="Rectangle 8" d="M411.912 233.231H408.5V456.077H411.912V233.231Z" fill="#3F3D56"/>
<path id="Rectangle 9" d="M246.398 292.941L246.39 296.353L576.685 297.154L576.693 293.742L246.398 292.941Z" fill="#3F3D56"/>
<path id="Rectangle 10" d="M553.391 398.348L263.22 400.333L263.243 403.745L553.414 401.76L553.391 398.348Z" fill="#3F3D56"/>
<path id="Ellipse 13" d="M173.033 199.11C183.398 199.11 191.8 194.527 191.8 188.873C191.8 183.219 183.398 178.636 173.033 178.636C162.668 178.636 154.266 183.219 154.266 188.873C154.266 194.527 162.668 199.11 173.033 199.11Z" fill="#3F3D56"/>
</g>
</svg>
